<svg t="1718005748696" class="icon" viewBox="0 0 1024 1024" version="1.1" xmlns="http://www.w3.org/2000/svg" p-id="10450" width="40" height="40"><path d="M512 962c-60.74 0-119.68-11.9-175.17-35.37-53.59-22.67-101.71-55.11-143.03-96.43-41.32-41.32-73.76-89.44-96.43-143.03C73.9 631.67 62 572.74 62 512c0-60.74 11.9-119.68 35.37-175.17 22.67-53.59 55.11-101.71 96.43-143.03 41.32-41.32 89.44-73.76 143.03-96.43C392.32 73.9 451.26 62 512 62c60.74 0 119.67 11.9 175.17 35.37 53.59 22.67 101.71 55.11 143.03 96.43 41.32 41.32 73.76 89.44 96.43 143.03C950.1 392.32 962 451.26 962 512c0 60.74-11.9 119.67-35.37 175.17-22.67 53.59-55.11 101.71-96.43 143.03-41.32 41.32-89.44 73.76-143.03 96.43C631.67 950.1 572.74 962 512 962z m0-860c-226.07 0-410 183.93-410 410 0 226.08 183.93 410 410 410 226.08 0 410-183.92 410-410 0-226.07-183.92-410-410-410z" fill="grey" p-id="10451"></path><path d="M509.68 168.5c-188.47 0.23-341.18 153.08-341.18 341.61s152.71 341.37 341.18 341.61V168.5z" fill="grey" p-id="10452"></path></svg>